<svg width="64" height="64" viewBox="0 0 64 64" fill="none" xmlns="http://www.w3.org/2000/svg">
  <rect width="64" height="64" rx="18" fill="#0B1324"/>
  <path d="M17 21C17 18.7909 18.7909 17 21 17H43C45.2091 17 47 18.7909 47 21V23.25C47 24.6307 45.8807 25.75 44.5 25.75C43.1193 25.75 42 24.6307 42 23.25V22H22V42H31C32.3807 42 33.5 43.1193 33.5 44.5C33.5 45.8807 32.3807 47 31 47H21C18.7909 47 17 45.2091 17 43V21Z" fill="#23D8B0"/>
  <path d="M29 19.5C29 18.1193 30.1193 17 31.5 17H43C45.2091 17 47 18.7909 47 21V33.5C47 34.8807 45.8807 36 44.5 36C43.1193 36 42 34.8807 42 33.5V22H31.5C30.1193 22 29 20.8807 29 19.5Z" fill="#E9FFF8"/>
  <path d="M28 34.5C28 31.4624 30.4624 29 33.5 29H44C45.6569 29 47 30.3431 47 32V43C47 45.2091 45.2091 47 43 47H33.5C30.4624 47 28 44.5376 28 41.5V34.5Z" fill="#23D8B0"/>
  <path d="M35 34H40.75C41.4404 34 42 34.5596 42 35.25C42 35.9404 41.4404 36.5 40.75 36.5H35C34.3096 36.5 33.75 35.9404 33.75 35.25C33.75 34.5596 34.3096 34 35 34Z" fill="#0B1324"/>
  <path d="M35 39.5H40.75C41.4404 39.5 42 40.0596 42 40.75C42 41.4404 41.4404 42 40.75 42H35C34.3096 42 33.75 41.4404 33.75 40.75C33.75 40.0596 34.3096 39.5 35 39.5Z" fill="#0B1324"/>
</svg>
